<?xml version="1.0" standalone="no"?>
<!DOCTYPE svg PUBLIC "-//W3C//DTD SVG 20010904//EN"
 "http://www.w3.org/TR/2001/REC-SVG-20010904/DTD/svg10.dtd">
<svg version="1.0" xmlns="http://www.w3.org/2000/svg"
 width="4259.000000pt" height="1048.000000pt" viewBox="0 0 4259.000000 1048.000000"
 preserveAspectRatio="xMidYMid meet">

<g transform="translate(0.000000,1048.000000) scale(0.100000,-0.100000)"
fill="#000000" stroke="none">
<path d="M5165 9743 c-610 -31 -1252 -203 -1798 -480 -292 -148 -596 -350
-862 -572 -128 -107 -435 -416 -547 -551 -567 -684 -901 -1463 -1013 -2360
-22 -172 -31 -656 -16 -846 76 -952 431 -1823 1040 -2549 107 -128 356 -381
491 -497 696 -604 1537 -970 2472 -1075 191 -21 693 -24 878 -5 858 88 1612
382 2286 889 469 352 885 823 1180 1334 361 626 569 1344 592 2049 6 169 2
483 -6 458 -1 -3 -205 -563 -453 -1245 -248 -681 -456 -1250 -461 -1265 l-10
-28 -287 0 -287 0 -585 1610 c-323 885 -584 1612 -581 1615 3 3 110 5 238 5
l232 0 34 -92 c18 -51 238 -657 488 -1345 250 -689 458 -1253 461 -1253 3 0
226 605 495 1345 l488 1345 68 0 c37 0 68 3 68 6 0 3 -14 60 -30 127 -150 599
-447 1202 -827 1680 -173 217 -447 499 -643 662 -662 550 -1447 894 -2292
1005 -264 34 -559 46 -813 33z m1625 -2468 l0 -225 -1145 0 -1145 0 0 -705 0
-705 950 0 950 0 0 -225 0 -225 -947 -2 -948 -3 -3 -867 -2 -868 1145 0 1145
0 0 -225 0 -225 -1370 0 -1370 0 0 2250 0 2250 1370 0 1370 0 0 -225z"/>
<path d="M22165 7478 c-7 -29 -865 -4467 -865 -4473 0 -3 103 -5 228 -5 l229
0 16 88 c8 48 54 287 102 532 47 245 187 969 311 1610 123 641 228 1173 232
1184 6 13 66 -135 219 -540 116 -308 383 -1015 593 -1572 l383 -1012 144 0
c140 0 144 1 152 23 90 248 1177 3117 1181 3117 3 0 60 -287 128 -638 118
-611 208 -1080 383 -1982 44 -228 97 -503 118 -610 l37 -195 231 -3 230 -2
-13 67 c-7 38 -56 291 -109 563 -169 870 -422 2170 -589 3030 l-162 835 -165
3 -166 2 -332 -877 c-183 -483 -464 -1226 -624 -1650 -161 -425 -294 -773
-297 -773 -3 0 -76 186 -162 413 -86 226 -331 869 -543 1427 -213 558 -424
1114 -470 1235 l-84 220 -165 3 c-165 2 -166 2 -171 -20z"/>
<path d="M17960 7223 c0 -5 0 -232 0 -505 l1 -498 -291 0 -290 0 0 -225 0
-225 288 -2 287 -3 0 -1383 0 -1382 228 0 227 0 0 1385 0 1385 385 0 385 0 -2
223 -3 222 -382 3 -383 2 -2 503 -3 502 -222 3 c-123 1 -223 -1 -223 -5z"/>
<path d="M33660 6725 l0 -505 -290 0 -290 0 0 -225 0 -225 290 0 290 0 0
-1385 0 -1385 225 0 225 0 2 1383 3 1382 383 3 382 2 0 225 0 225 -385 0 -385
0 0 505 0 505 -225 0 -225 0 0 -505z"/>
<path d="M31385 6320 c-508 -42 -921 -335 -1027 -728 -28 -104 -31 -326 -5
-422 24 -89 76 -195 124 -253 161 -193 423 -322 998 -490 384 -113 519 -166
631 -251 98 -73 141 -151 151 -271 16 -192 -100 -368 -312 -471 -153 -74 -220
-88 -435 -88 -202 0 -248 8 -416 73 -179 69 -377 220 -433 328 -12 24 -26 43
-31 43 -11 0 -362 -151 -373 -161 -5 -3 1 -26 14 -50 147 -290 485 -515 915
-611 136 -30 494 -33 622 -5 266 59 463 163 632 336 176 180 239 334 240 582
0 200 -47 329 -167 459 -193 208 -478 346 -1148 555 -365 114 -477 170 -547
270 -80 115 -75 330 12 464 84 132 272 239 487 276 108 19 289 19 385 1 267
-51 509 -202 600 -374 14 -24 28 -40 36 -37 7 2 89 50 183 105 l170 101 -27
47 c-151 260 -458 463 -819 542 -81 17 -320 43 -360 38 -5 0 -51 -4 -100 -8z"/>
<path d="M11795 6299 c-176 -15 -345 -61 -512 -139 -503 -237 -854 -723 -939
-1302 -23 -157 -15 -448 16 -603 131 -655 640 -1183 1264 -1310 183 -37 439
-37 622 0 392 80 752 325 994 677 69 99 156 261 144 265 -20 6 -438 103 -445
103 -4 0 -21 -24 -38 -52 -75 -131 -222 -292 -347 -378 -94 -65 -236 -132
-339 -160 -102 -28 -339 -38 -453 -20 -475 76 -851 463 -945 972 -8 43 -12 80
-9 83 3 3 617 5 1364 5 l1358 0 0 138 c0 304 -67 591 -200 857 -82 163 -173
288 -310 425 -261 262 -573 406 -951 440 -125 11 -142 11 -274 -1z m270 -410
c370 -45 698 -282 883 -638 66 -127 105 -251 126 -408 l6 -43 -1145 0 -1146 0
7 48 c11 79 53 231 84 306 210 503 683 796 1185 735z"/>
<path d="M15450 6300 c-222 -23 -425 -97 -607 -222 -79 -54 -211 -177 -276
-258 l-37 -45 0 223 0 222 -222 -2 -223 -3 -3 -1607 -2 -1608 225 0 225 0 0
963 c0 637 4 992 11 1052 47 389 325 703 715 811 97 27 310 30 424 6 327 -67
600 -310 712 -632 46 -132 48 -186 48 -1222 l0 -978 225 0 226 0 -4 1088 c-4
1189 -1 1127 -63 1317 -128 387 -451 710 -837 836 -160 52 -376 76 -537 59z"/>
<path d="M28067 6300 c-431 -38 -848 -254 -1122 -581 -298 -355 -435 -781
-397 -1232 20 -236 64 -399 162 -602 233 -482 677 -831 1189 -935 263 -53 556
-42 773 30 254 85 499 290 649 543 l34 58 7 -38 c4 -21 7 -101 7 -178 1 -77 4
-191 8 -252 l6 -113 224 0 223 0 0 1610 0 1610 -225 0 -226 0 7 -297 6 -298
-48 72 c-173 257 -425 455 -690 542 -168 54 -393 78 -587 61z m392 -456 c423
-75 747 -420 853 -909 28 -128 35 -424 14 -560 -50 -327 -196 -607 -411 -788
-129 -109 -266 -175 -441 -213 -99 -21 -338 -24 -444 -5 -168 30 -337 100
-487 202 -99 68 -252 221 -321 322 -337 491 -284 1160 126 1589 291 304 693
435 1111 362z"/>
<path d="M36635 6299 c-533 -50 -1019 -393 -1270 -897 -133 -265 -184 -489
-185 -796 0 -183 18 -324 61 -481 161 -587 648 -1056 1218 -1176 191 -40 450
-42 637 -4 459 94 869 413 1103 859 23 43 40 80 39 81 -6 5 -450 106 -453 103
-1 -1 -34 -50 -73 -108 -73 -109 -184 -227 -287 -305 -80 -61 -260 -149 -360
-176 -102 -27 -340 -37 -453 -19 -416 66 -763 374 -902 799 -30 92 -61 246
-52 256 3 3 617 5 1364 5 l1358 0 0 138 c0 770 -438 1429 -1093 1647 -129 43
-225 62 -368 75 -127 11 -155 11 -284 -1z m280 -410 c418 -51 792 -359 945
-777 26 -70 46 -155 65 -274 l6 -38 -1146 0 -1146 0 7 48 c12 83 51 226 83
303 211 506 682 800 1186 738z"/>
<path d="M40280 6299 c-338 -37 -649 -210 -867 -484 l-32 -40 -1 223 0 222
-222 -2 -223 -3 -3 -1607 -2 -1608 225 0 224 0 3 1023 4 1022 23 85 c93 342
347 598 686 692 108 31 306 35 418 10 l89 -19 9 26 c6 14 46 113 90 220 44
106 77 196 74 199 -2 3 -46 13 -96 23 -116 22 -290 30 -399 18z"/>
</g>
</svg>
